<svg width="1440" height="207" viewBox="0 0 1440 207" fill="none" xmlns="http://www.w3.org/2000/svg">
<path d="M1223.45 207C1039.91 207 1080.65 85.9256 867.944 85.9256C655.24 85.9256 546.226 -103.67 546.226 -103.67V-105L1435 -105C1435 -105 1406.99 207 1223.45 207Z" fill="#BAF4FF"/>
<path d="M1090.04 8.6414C791.255 39.2074 807.436 196.623 518.06 93.2077C228.684 -10.2076 -5 93.2077 -5 93.2077V-53L1440 -53V163C1440 163 1388.82 -21.9246 1090.04 8.6414Z" fill="#E3FAFF"/>
<path d="M422.355 -60.6299C422.355 -60.6299 378.824 42.7995 222.821 42.7995C66.8177 42.7995 -1.90329 154 -1.90329 154V-61L422.355 -61V-60.6299Z" fill="#FFBCBC"/>
</svg>
